<?xml version="1.0" encoding="UTF-8" standalone="no"?>
<svg
   xmlns:dc="http://purl.org/dc/elements/1.1/"
   xmlns:cc="http://creativecommons.org/ns#"
   xmlns:rdf="http://www.w3.org/1999/02/22-rdf-syntax-ns#"
   xmlns:svg="http://www.w3.org/2000/svg"
   xmlns="http://www.w3.org/2000/svg"
   xmlns:sodipodi="http://sodipodi.sourceforge.net/DTD/sodipodi-0.dtd"
   xmlns:inkscape="http://www.inkscape.org/namespaces/inkscape"
   width="219.68932"
   height="95.089371"
   viewBox="0 0 194 194"
   id="svg2"
   sodipodi:version="0.32"
   inkscape:version="0.46"
   sodipodi:docname="Seinfeld logo.svg"
   inkscape:output_extension="org.inkscape.output.svg.inkscape"
   version="1.0">
  <metadata
     id="metadata35">
    <rdf:RDF>
      <cc:Work
         rdf:about="">
        <dc:format>image/svg+xml</dc:format>
        <dc:type
           rdf:resource="http://purl.org/dc/dcmitype/StillImage" />
      </cc:Work>
    </rdf:RDF>
  </metadata>
  <defs
     id="defs33">
    <inkscape:perspective
       sodipodi:type="inkscape:persp3d"
       inkscape:vp_x="0 : 121.25 : 1"
       inkscape:vp_y="0 : 1000 : 0"
       inkscape:vp_z="242.5 : 121.25 : 1"
       inkscape:persp3d-origin="121.25 : 80.833333 : 1"
       id="perspective37" />
  </defs>
  <sodipodi:namedview
     inkscape:window-height="744"
     inkscape:window-width="1280"
     inkscape:pageshadow="2"
     inkscape:pageopacity="0.0"
     guidetolerance="10.0"
     gridtolerance="10.0"
     objecttolerance="10.0"
     borderopacity="1.0"
     bordercolor="#666666"
     pagecolor="#ffffff"
     id="base"
     showgrid="false"
     inkscape:zoom="10.777182"
     inkscape:cx="79.670042"
     inkscape:cy="79.617374"
     inkscape:window-x="-4"
     inkscape:window-y="-4"
     inkscape:current-layer="svg2" />
  <g
     transform="matrix(2.4014204,0,0,2.4014204,-111.40382,50.245087)"
     style="fill:#161413;fill-rule:evenodd;stroke:none;stroke-width:1;stroke-linecap:butt;stroke-linejoin:miter;stroke-dasharray:none"
     id="g8">
    <path
       d="M 173.567,0 C 174.32,1.7207 174.699,3.5528 174.656,5.4932 C 174.236,24.4158 134.536,46.4368 86.2803,54.5138 C 41.6739,61.9798 4.9668,54.9858 0,38.9388 C 6.5948,54.0028 42.4551,60.3878 85.7647,53.1378 C 134.02,45.0608 173.721,23.0398 174.139,4.1172 C 174.172,2.6856 173.973,1.3135 173.567,0 z"
       id="path10" />
  </g>
  <g
     transform="matrix(2.4014204,0,0,2.4014204,-115.02461,-6.5516276)"
     style="fill:#fcd720;fill-rule:evenodd;stroke:none;stroke-width:1;stroke-linecap:butt;stroke-linejoin:miter;stroke-dasharray:none"
     id="g12">
    <path
       d="M 88.795,8.0771 C 137.052,0 176.067,8.8457 175.647,27.7685 C 175.229,46.6911 135.528,68.7131 87.2715,76.7891 C 39.0157,84.8661 0,76.0201 0.41895,57.0981 C 0.83887,38.1748 40.5391,16.1533 88.795,8.0771 z"
       id="path14" />
  </g>
  <g
     transform="matrix(2.4014204,0,0,2.4014204,49.878455,15.570017)"
     style="fill:#161413;fill-rule:evenodd;stroke:none;stroke-width:1;stroke-linecap:butt;stroke-linejoin:miter;stroke-dasharray:none"
     id="g16">
    <path
       d="M 6.584,0 C 6.584,0 0.3369,11.1806 0.3369,11.1806 C 0.3369,11.1806 0,10.4814 0,10.4814 C 0,10.4814 5.8554,0 5.8554,0 C 5.8554,0 6.584,0 6.584,0 z"
       id="path18" />
  </g>
  <g
     transform="matrix(2.4014204,0,0,2.4014204,36.909824,13.91904)"
     style="fill:#e30922;fill-rule:evenodd;stroke:none;stroke-width:1;stroke-linecap:butt;stroke-linejoin:miter;stroke-dasharray:none;fill-opacity:1"
     id="g20">
    <path
       d="M 11.6406,0 C 11.6406,0 5.3935,11.1806 5.3935,11.1806 C 5.3935,11.1806 0,0 0,0 C 0,0 11.6406,0 11.6406,0 z"
       id="path22"
       style="fill:#e30922;fill-opacity:1" />
  </g>
  <g
     transform="matrix(2.4014204,0,0,2.4014204,-89.767503,11.85526)"
     style="fill:#161413;fill-rule:evenodd;stroke:none;stroke-width:1;stroke-linecap:butt;stroke-linejoin:miter;stroke-dasharray:none"
     id="g24">
    <path
       d="M 53.2354,16.9834 C 53.2354,16.9834 60.7334,16.9834 60.7334,16.9834 C 60.7334,16.9834 55.6592,56.1681 55.6592,56.1681 C 55.6592,56.1681 58.3701,56.1681 58.3701,56.1681 C 58.3701,56.1681 58.1094,58.1791 58.1094,58.1791 C 58.1094,58.1791 47.9004,58.1791 47.9004,58.1791 C 47.9004,58.1791 48.1602,56.1681 48.1602,56.1681 C 48.1602,56.1681 50.8711,56.1681 50.8711,56.1681 C 50.8711,56.1681 55.6856,18.9941 55.6856,18.9941 C 55.6856,18.9941 52.9746,18.9941 52.9746,18.9941 C 52.9746,18.9941 53.2354,16.9834 53.2354,16.9834 z M 121.785,43.4331 C 120.793,48.2651 119.335,52.0471 117.418,54.7691 C 115.276,57.8111 112.717,59.3251 109.739,59.3251 C 106.402,59.3251 103.894,57.2331 102.224,53.0351 C 100.555,48.8371 100.147,43.4951 100.989,37.0264 C 101.826,30.5977 103.619,25.3115 106.366,21.168 C 109.113,17.0254 112.146,14.96 115.465,14.96 C 118.563,14.96 120.767,16.502 122.084,19.5986 C 123.402,22.6826 123.704,27.0049 122.983,32.5381 C 122.983,32.5381 122.831,33.709 122.831,33.709 C 122.831,33.709 106.76,33.709 106.76,33.709 C 106.719,34.0254 106.637,34.5898 106.516,35.3877 C 106.397,36.1729 106.305,36.8057 106.247,37.2598 C 105.399,43.7701 105.349,48.6851 106.107,52.0031 C 106.864,55.3201 108.401,56.9851 110.72,56.9851 C 112.963,56.9851 114.969,55.6371 116.739,52.9521 C 118.291,50.5891 119.502,47.4221 120.367,43.4331 C 120.567,41.7621 122.086,42.0121 121.785,43.4331 z M 107.204,31.6162 C 107.204,31.6162 117.836,31.6572 117.836,31.6572 C 117.929,31.0654 118.019,30.501 118.096,29.9775 C 118.173,29.4551 118.236,28.9727 118.296,28.5049 C 118.815,24.5264 118.815,21.5674 118.291,19.6123 C 117.765,17.6719 116.72,16.6943 115.145,16.6943 C 113.357,16.6943 111.766,18.002 110.384,20.6035 C 109,23.2187 107.94,26.8809 107.204,31.6162 z M 49.3731,43.4331 C 48.3809,48.2651 46.9229,52.0471 45.0059,54.7691 C 42.8643,57.8111 40.3057,59.3251 37.3272,59.3251 C 33.9902,59.3251 31.4824,57.2331 29.8125,53.0351 C 28.1426,48.8371 27.7344,43.4951 28.5772,37.0264 C 29.415,30.5977 31.207,25.3115 33.9541,21.168 C 36.7012,17.0254 39.7344,14.96 43.0537,14.96 C 46.1514,14.96 48.3555,16.502 49.6719,19.5986 C 50.9902,22.6826 51.292,27.0049 50.5713,32.5381 C 50.5713,32.5381 50.419,33.709 50.419,33.709 C 50.419,33.709 34.3486,33.709 34.3486,33.709 C 34.3076,34.0254 34.2256,34.5898 34.1045,35.3877 C 33.9854,36.1729 33.8936,36.8057 33.835,37.2598 C 32.9873,43.7701 32.9375,48.6851 33.6953,52.0031 C 34.4522,55.3201 35.9893,56.9851 38.3086,56.9851 C 40.5498,56.9851 42.5576,55.6371 44.3272,52.9521 C 45.8799,50.5891 47.0899,47.4221 47.9551,43.4331 C 48.1543,41.7621 49.6738,42.0121 49.3731,43.4331 z M 34.793,31.6162 C 34.793,31.6162 45.4229,31.6572 45.4229,31.6572 C 45.5176,31.0654 45.6074,30.501 45.6846,29.9775 C 45.7617,29.4551 45.8242,28.9727 45.8848,28.5049 C 46.4033,24.5264 46.4043,21.5674 45.8799,19.6123 C 45.3535,17.6719 44.3086,16.6943 42.7344,16.6943 C 40.9453,16.6943 39.3545,18.002 37.9717,20.6035 C 36.5879,23.2187 35.5293,26.8809 34.793,31.6162 z M 3.3545,38.1699 C 3.3565,38.2783 3.3594,38.4561 3.374,38.7271 C 4.0098,51.9111 6.209,58.3921 9.9785,58.1851 C 12.4942,58.0471 14.7256,56.7231 16.6914,54.2001 C 18.6484,51.6781 19.8604,48.6091 20.3291,44.9821 C 20.6475,42.5231 20.4336,40.4621 19.6865,38.8251 C 18.9307,37.1885 17.0635,35.2998 14.0781,33.1455 C 9.626,29.9795 6.8731,27.2676 5.8252,25.0332 C 4.7774,22.7852 4.4746,19.9238 4.9219,16.4619 C 5.5078,11.9277 7.1524,8.1807 9.8652,5.208 C 12.5703,2.2344 15.8389,0.6357 19.6582,0.4258 C 21.1494,0.3437 22.6201,0.5488 24.0723,1.0283 C 25.5322,1.5068 26.9492,2.2607 28.3281,3.3037 C 27.6504,8.5518 26.9727,13.7998 26.2949,19.0488 C 26.2236,20.2725 25.1914,20.2383 25.1768,19.1104 C 25.1465,18.6895 25.1133,18.1045 25.0576,17.3574 C 24.4375,7.0508 22.3154,1.998 18.6895,2.1982 C 16.2754,2.3311 14.1641,3.375 12.3457,5.3437 C 10.5352,7.3125 9.4424,9.7187 9.0752,12.5625 C 8.5078,16.959 10.9082,21.0283 16.2891,24.7568 C 16.5371,24.9199 16.7051,25.0469 16.8135,25.124 C 20.9297,27.9658 23.5088,30.5244 24.54,32.8281 C 25.5713,35.1309 25.8584,38.0479 25.4014,41.5931 C 24.7529,46.6071 22.9131,50.8971 19.8887,54.4471 C 16.8565,57.9971 13.376,59.8801 9.4365,60.0981 C 7.2852,60.2161 5.3545,59.8581 3.6397,59.0121 C 1.9219,58.1791 0.71,57.0171 0,55.5431 C 0.7451,49.7721 1.4912,44.0021 2.2363,38.2314 C 2.3154,37.3125 3.2861,37.3105 3.3545,38.1699 z M 147.781,18.1709 C 145.862,18.1709 144.245,19.8037 142.921,23.0557 C 141.605,26.3076 140.512,31.3545 139.645,38.168 C 138.834,44.5511 138.683,49.2731 139.193,52.3501 C 139.713,55.4131 140.911,56.9501 142.796,56.9501 C 144.64,56.9501 146.211,55.3721 147.504,52.2281 C 148.797,49.0851 149.861,44.2671 150.687,37.7764 C 151.573,30.8145 151.784,25.8076 151.328,22.7588 C 150.865,19.6953 149.691,18.1709 147.781,18.1709 z M 151.983,4.0166 C 151.983,4.0166 152.24,2.0059 152.24,2.0059 C 152.24,2.0059 159.781,2.0059 159.781,2.0059 C 159.781,2.0059 152.898,56.0881 152.898,56.0881 C 152.898,56.0881 155.734,56.0881 155.734,56.0881 C 155.734,56.0881 155.467,58.1791 155.467,58.1791 C 155.467,58.1791 148.353,58.1791 148.353,58.1791 C 148.353,58.1791 149.415,49.8401 149.415,49.8401 C 148.513,53.0521 147.422,55.4391 146.143,56.9911 C 144.864,58.5431 143.354,59.3261 141.609,59.3261 C 138.707,59.3261 136.597,57.3551 135.264,53.4021 C 133.939,49.4491 133.677,44.2941 134.486,37.9385 C 135.292,31.6104 136.919,26.3613 139.361,22.1787 C 141.8,18.0088 144.461,15.917 147.321,15.917 C 148.879,15.917 150.082,16.5781 150.948,17.8877 C 151.812,19.21 152.337,21.207 152.506,23.8652 C 152.506,23.8652 155.033,4.0166 155.033,4.0166 C 155.033,4.0166 151.983,4.0166 151.983,4.0166 z M 127.816,2.0059 C 127.816,2.0059 135.209,2.0059 135.209,2.0059 C 135.209,2.0059 128.294,56.1681 128.294,56.1681 C 128.294,56.1681 131.164,56.1681 131.164,56.1681 C 131.164,56.1681 130.907,58.1791 130.907,58.1791 C 130.907,58.1791 120.645,58.1791 120.645,58.1791 C 120.645,58.1791 120.901,56.1681 120.901,56.1681 C 120.901,56.1681 123.574,56.1681 123.574,56.1681 C 123.574,56.1681 130.232,4.0166 130.232,4.0166 C 130.232,4.0166 127.559,4.0166 127.559,4.0166 C 127.559,4.0166 127.816,2.0059 127.816,2.0059 z M 98.2014,58.1791 C 98.2014,58.1791 85.7824,58.1791 85.7824,58.1791 C 85.7824,58.1791 86.0724,56.0561 86.0724,56.0561 C 86.0724,56.0561 89.2324,56.0561 89.2324,56.0561 C 89.2324,56.0561 94.3744,18.4062 94.3744,18.4062 C 94.3744,18.4062 91.8414,18.4062 91.8414,18.4062 C 91.8414,18.4062 92.1204,16.3662 92.1204,16.3662 C 92.1204,16.3662 94.6534,16.3662 94.6534,16.3662 C 94.6534,16.3662 94.9704,14.0381 94.9704,14.0381 C 95.6064,9.3809 96.7094,5.8887 98.2714,3.5332 C 99.8424,1.1777 101.86,0 104.342,0 C 105.172,0 105.984,0.1367 106.766,0.4248 C 107.55,0.6982 108.312,1.1367 109.07,1.7256 C 108.607,5.1221 108.142,8.5186 107.679,11.915 C 107.576,13.0664 106.111,12.9707 106.037,11.915 C 105.691,7.4502 105.362,4.6289 105.057,3.4648 C 104.752,2.3008 104.321,1.7256 103.767,1.7256 C 103.036,1.7256 102.452,2.2734 102.007,3.3691 C 101.572,4.4648 101.1,6.875 100.593,10.5859 C 100.593,10.5859 99.8044,16.3662 99.8044,16.3662 C 99.8044,16.3662 105.848,16.3662 105.848,16.3662 C 105.848,16.3662 105.569,18.4062 105.569,18.4062 C 105.569,18.4062 99.5254,18.4062 99.5254,18.4062 C 99.5254,18.4062 94.3834,56.0561 94.3834,56.0561 C 94.3834,56.0561 98.4904,56.0561 98.4904,56.0561 C 98.4904,56.0561 98.2014,58.1791 98.2014,58.1791 z M 60.043,58.1791 C 60.043,58.1791 60.3115,56.1681 60.3115,56.1681 C 60.3115,56.1681 63.0508,56.1681 63.0508,56.1681 C 63.0508,56.1681 68.0088,18.9941 68.0088,18.9941 C 68.0088,18.9941 65.2686,18.9941 65.2686,18.9941 C 65.2686,18.9941 65.5371,16.9834 65.5371,16.9834 C 65.5371,16.9834 72.7598,16.9834 72.7598,16.9834 C 72.7598,16.9834 71.833,23.9326 71.833,23.9326 C 72.6397,21.4902 73.8047,19.5205 75.3145,18.0488 C 76.833,16.5781 78.4356,15.8359 80.127,15.8359 C 82.7474,15.8359 84.4514,16.9023 85.2414,19.0342 C 86.0284,21.1797 85.9884,25.4707 85.1284,31.9209 C 85.1284,31.9209 81.8944,56.1681 81.8944,56.1681 C 81.8944,56.1681 84.6344,56.1681 84.6344,56.1681 C 84.6344,56.1681 84.3664,58.1791 84.3664,58.1791 C 84.3664,58.1791 74.2061,58.1791 74.2061,58.1791 C 74.2061,58.1791 74.4746,56.1681 74.4746,56.1681 C 74.4746,56.1681 77.2656,56.1681 77.2656,56.1681 C 77.2656,56.1681 80.5928,31.2187 80.5928,31.2187 C 81.3444,25.5791 81.5474,21.9893 81.1934,20.4648 C 80.8474,18.9404 79.9707,18.1709 78.5625,18.1709 C 76.8184,18.1709 75.2334,19.5605 73.8164,22.3271 C 72.3994,25.0928 71.3779,28.8311 70.7481,33.5527 C 70.7481,33.5527 67.7324,56.1681 67.7324,56.1681 C 67.7324,56.1681 70.4717,56.1681 70.4717,56.1681 C 70.4717,56.1681 70.2041,58.1791 70.2041,58.1791 C 70.2041,58.1791 60.043,58.1791 60.043,58.1791 z"
       id="path26" />
  </g>
  <g
     transform="matrix(2.4014204,0,0,2.4014204,-91.005676,10.201882)"
     style="fill:#e30922;fill-rule:evenodd;stroke:none;stroke-width:1;stroke-linecap:butt;stroke-linejoin:miter;stroke-dasharray:none"
     id="g28">
    <path
       d="M 53.2353,16.9844 C 53.2353,16.9844 60.7334,16.9844 60.7334,16.9844 C 60.7334,16.9844 55.6592,56.1686 55.6592,56.1686 C 55.6592,56.1686 58.3701,56.1686 58.3701,56.1686 C 58.3701,56.1686 58.1094,58.1796 58.1094,58.1796 C 58.1094,58.1796 47.8994,58.1796 47.8994,58.1796 C 47.8994,58.1796 48.1601,56.1686 48.1601,56.1686 C 48.1601,56.1686 50.8711,56.1686 50.8711,56.1686 C 50.8711,56.1686 55.6855,18.9951 55.6855,18.9951 C 55.6855,18.9951 52.9746,18.9951 52.9746,18.9951 C 52.9746,18.9951 53.2353,16.9844 53.2353,16.9844 z M 121.785,43.4346 C 120.793,48.2646 119.335,52.0466 117.418,54.7696 C 115.276,57.8126 112.717,59.3266 109.739,59.3266 C 106.402,59.3266 103.895,57.2336 102.225,53.0356 C 100.555,48.8366 100.146,43.4966 100.989,37.0264 C 101.826,30.5977 103.618,25.3125 106.366,21.169 C 109.113,17.0254 112.146,14.961 115.466,14.961 C 118.563,14.961 120.768,16.502 122.084,19.5996 C 123.402,22.6836 123.703,27.0059 122.982,32.5391 C 122.982,32.5391 122.83,33.709 122.83,33.709 C 122.83,33.709 106.761,33.709 106.761,33.709 C 106.72,34.0264 106.637,34.5899 106.517,35.3887 C 106.396,36.1729 106.306,36.8067 106.247,37.2608 C 105.398,43.7716 105.35,48.6856 106.106,52.0026 C 106.863,55.3206 108.401,56.9866 110.721,56.9866 C 112.962,56.9866 114.969,55.6376 116.739,52.9526 C 118.291,50.5886 119.501,47.4216 120.366,43.4346 C 120.566,41.7626 122.086,42.0126 121.785,43.4346 z M 107.204,31.6162 C 107.204,31.6162 117.835,31.6582 117.835,31.6582 C 117.93,31.0664 118.02,30.502 118.097,29.9785 C 118.173,29.4561 118.235,28.9737 118.297,28.5059 C 118.814,24.5274 118.815,21.5684 118.291,19.6133 C 117.766,17.6729 116.72,16.6953 115.145,16.6953 C 113.357,16.6953 111.767,18.003 110.384,20.6045 C 108.999,23.2197 107.94,26.8809 107.204,31.6162 z M 49.373,43.4346 C 48.3808,48.2646 46.9228,52.0466 45.0058,54.7696 C 42.8642,57.8126 40.3056,59.3266 37.3271,59.3266 C 33.9902,59.3266 31.4824,57.2336 29.8125,53.0356 C 28.1426,48.8366 27.7344,43.4966 28.5771,37.0264 C 29.414,30.5977 31.207,25.3125 33.9541,21.169 C 36.7012,17.0254 39.7344,14.961 43.0537,14.961 C 46.1514,14.961 48.3555,16.502 49.6719,19.5996 C 50.9902,22.6836 51.291,27.0059 50.5703,32.5391 C 50.5703,32.5391 50.418,33.709 50.418,33.709 C 50.418,33.709 34.3486,33.709 34.3486,33.709 C 34.3076,34.0264 34.2256,34.5899 34.1045,35.3887 C 33.9853,36.1729 33.8935,36.8067 33.8349,37.2608 C 32.9873,43.7716 32.9375,48.6856 33.6943,52.0026 C 34.4521,55.3206 35.9892,56.9866 38.3086,56.9866 C 40.5498,56.9866 42.5566,55.6376 44.3271,52.9526 C 45.8789,50.5886 47.0889,47.4216 47.9541,43.4346 C 48.1543,41.7626 49.6738,42.0126 49.373,43.4346 z M 34.793,31.6162 C 34.793,31.6162 45.4228,31.6582 45.4228,31.6582 C 45.5176,31.0664 45.6074,30.502 45.6846,29.9785 C 45.7607,29.4561 45.8242,28.9737 45.8848,28.5059 C 46.4033,24.5274 46.4033,21.5684 45.8789,19.6133 C 45.3535,17.6729 44.3086,16.6953 42.7334,16.6953 C 40.9453,16.6953 39.3545,18.003 37.9717,20.6045 C 36.5879,23.2197 35.5283,26.8809 34.793,31.6162 z M 3.3535,38.1709 C 3.3564,38.2793 3.3584,38.4561 3.374,38.7285 C 4.0098,51.9126 6.208,58.3936 9.9775,58.1856 C 12.4941,58.0466 14.7246,56.7236 16.6914,54.2016 C 18.6484,51.6786 19.8603,48.6106 20.3291,44.9836 C 20.6465,42.5246 20.4336,40.4616 19.6865,38.8252 C 18.9297,37.1895 17.0635,35.3008 14.0781,33.1455 C 9.626,29.9805 6.873,27.2676 5.8242,25.0342 C 4.7773,22.7862 4.4746,19.9248 4.9209,16.4619 C 5.5068,11.9278 7.1514,8.1817 9.8652,5.208 C 12.5703,2.2354 15.8379,0.6367 19.6582,0.4258 C 21.1494,0.3438 22.6201,0.5498 24.0723,1.0293 C 25.5322,1.5078 26.9482,2.2617 28.3281,3.3047 C 27.6504,8.5528 26.9717,13.8008 26.2939,19.0498 C 26.2236,20.2725 25.1914,20.2383 25.1758,19.1114 C 25.1465,18.6895 25.1123,18.1045 25.0576,17.3584 C 24.4375,7.0518 22.3154,1.9981 18.6894,2.1983 C 16.2754,2.3311 14.164,3.375 12.3457,5.3447 C 10.5351,7.3125 9.4424,9.7197 9.0752,12.5635 C 8.5068,16.96 10.9082,21.0293 16.289,24.7578 C 16.5371,24.9209 16.7051,25.0479 16.8135,25.124 C 20.9287,27.9668 23.5088,30.5254 24.54,32.8291 C 25.5713,35.1319 25.8584,38.0489 25.4004,41.5936 C 24.7529,46.6086 22.9121,50.8976 19.8887,54.4476 C 16.8564,57.9976 13.376,59.8806 9.4365,60.0986 C 7.2851,60.2166 5.3545,59.8596 3.6396,59.0126 C 1.9219,58.1796 0.709,57.0186 0,55.5426 C 0.7451,49.7736 1.4902,44.0016 2.2353,38.2324 C 2.3154,37.3135 3.2861,37.3106 3.3535,38.1709 z M 147.78,18.1719 C 145.862,18.1719 144.245,19.8037 142.922,23.0567 C 141.605,26.3076 140.513,31.3545 139.645,38.169 C 138.833,44.5506 138.684,49.2736 139.193,52.3506 C 139.713,55.4136 140.911,56.9516 142.797,56.9516 C 144.641,56.9516 146.21,55.3726 147.504,52.2286 C 148.797,49.0846 149.861,44.2676 150.687,37.7774 C 151.573,30.8145 151.784,25.8086 151.328,22.7588 C 150.865,19.6963 149.69,18.1719 147.78,18.1719 z M 151.983,4.0166 C 151.983,4.0166 152.24,2.0059 152.24,2.0059 C 152.24,2.0059 159.781,2.0059 159.781,2.0059 C 159.781,2.0059 152.897,56.0876 152.897,56.0876 C 152.897,56.0876 155.734,56.0876 155.734,56.0876 C 155.734,56.0876 155.468,58.1796 155.468,58.1796 C 155.468,58.1796 148.353,58.1796 148.353,58.1796 C 148.353,58.1796 149.415,49.8406 149.415,49.8406 C 148.514,53.0516 147.423,55.4406 146.144,56.9926 C 144.864,58.5436 143.354,59.3266 141.608,59.3266 C 138.707,59.3266 136.597,57.3566 135.264,53.4036 C 133.939,49.4496 133.677,44.2946 134.486,37.9395 C 135.291,31.6114 136.918,26.3623 139.361,22.1787 C 141.801,18.0098 144.461,15.918 147.321,15.918 C 148.879,15.918 150.082,16.5791 150.948,17.8877 C 151.812,19.21 152.337,21.208 152.507,23.8662 C 152.507,23.8662 155.033,4.0166 155.033,4.0166 C 155.033,4.0166 151.983,4.0166 151.983,4.0166 z M 127.816,2.0059 C 127.816,2.0059 135.209,2.0059 135.209,2.0059 C 135.209,2.0059 128.294,56.1686 128.294,56.1686 C 128.294,56.1686 131.163,56.1686 131.163,56.1686 C 131.163,56.1686 130.907,58.1796 130.907,58.1796 C 130.907,58.1796 120.645,58.1796 120.645,58.1796 C 120.645,58.1796 120.901,56.1686 120.901,56.1686 C 120.901,56.1686 123.574,56.1686 123.574,56.1686 C 123.574,56.1686 130.232,4.0166 130.232,4.0166 C 130.232,4.0166 127.56,4.0166 127.56,4.0166 C 127.56,4.0166 127.816,2.0059 127.816,2.0059 z M 98.2,58.1796 C 98.2,58.1796 85.782,58.1796 85.782,58.1796 C 85.782,58.1796 86.071,56.0566 86.071,56.0566 C 86.071,56.0566 89.231,56.0566 89.231,56.0566 C 89.231,56.0566 94.374,18.4072 94.374,18.4072 C 94.374,18.4072 91.841,18.4072 91.841,18.4072 C 91.841,18.4072 92.12,16.3662 92.12,16.3662 C 92.12,16.3662 94.652,16.3662 94.652,16.3662 C 94.652,16.3662 94.971,14.0381 94.971,14.0381 C 95.606,9.3819 96.708,5.8897 98.271,3.5342 C 99.843,1.1778 101.86,0 104.343,0 C 105.173,0 105.984,0.1377 106.767,0.4248 C 107.551,0.6992 108.312,1.1377 109.07,1.7256 C 108.606,5.1221 108.143,8.5196 107.68,11.9151 C 107.576,13.0664 106.11,12.9717 106.036,11.9151 C 105.69,7.4512 105.362,4.6289 105.057,3.4658 C 104.752,2.3008 104.32,1.7256 103.768,1.7256 C 103.035,1.7256 102.452,2.2744 102.008,3.3692 C 101.572,4.4649 101.1,6.875 100.594,10.5869 C 100.594,10.5869 99.804,16.3662 99.804,16.3662 C 99.804,16.3662 105.848,16.3662 105.848,16.3662 C 105.848,16.3662 105.569,18.4072 105.569,18.4072 C 105.569,18.4072 99.525,18.4072 99.525,18.4072 C 99.525,18.4072 94.384,56.0566 94.384,56.0566 C 94.384,56.0566 98.49,56.0566 98.49,56.0566 C 98.49,56.0566 98.2,58.1796 98.2,58.1796 z M 60.043,58.1796 C 60.043,58.1796 60.3115,56.1686 60.3115,56.1686 C 60.3115,56.1686 63.0508,56.1686 63.0508,56.1686 C 63.0508,56.1686 68.0088,18.9951 68.0088,18.9951 C 68.0088,18.9951 65.2685,18.9951 65.2685,18.9951 C 65.2685,18.9951 65.5361,16.9844 65.5361,16.9844 C 65.5361,16.9844 72.7598,16.9844 72.7598,16.9844 C 72.7598,16.9844 71.833,23.9336 71.833,23.9336 C 72.6396,21.4903 73.8037,19.5205 75.3144,18.0498 C 76.833,16.5791 78.4346,15.8369 80.1269,15.8369 C 82.746,15.8369 84.451,16.9033 85.24,19.0352 C 86.028,21.1807 85.988,25.4717 85.128,31.9209 C 85.128,31.9209 81.895,56.1686 81.895,56.1686 C 81.895,56.1686 84.635,56.1686 84.635,56.1686 C 84.635,56.1686 84.366,58.1796 84.366,58.1796 C 84.366,58.1796 74.206,58.1796 74.206,58.1796 C 74.206,58.1796 74.4736,56.1686 74.4736,56.1686 C 74.4736,56.1686 77.2656,56.1686 77.2656,56.1686 C 77.2656,56.1686 80.5918,31.2197 80.5918,31.2197 C 81.344,25.5791 81.548,21.9903 81.1933,20.4658 C 80.8467,18.9405 79.9707,18.1719 78.5615,18.1719 C 76.8183,18.1719 75.2334,19.5615 73.8164,22.3272 C 72.3994,25.0938 71.3769,28.8311 70.7471,33.5537 C 70.7471,33.5537 67.7314,56.1686 67.7314,56.1686 C 67.7314,56.1686 70.4717,56.1686 70.4717,56.1686 C 70.4717,56.1686 70.2031,58.1796 70.2031,58.1796 C 70.2031,58.1796 60.043,58.1796 60.043,58.1796 z"
       id="path30"
       style="fill:#e30922;fill-opacity:1" />
  </g>
</svg>
