<svg id="previewSVG" xmlns="https://www.w3.org/2000/svg" version="1.1" width="4000" height="2000" viewBox="0 0 4000 2000" background="none">

                <defs>
                  <pattern id="previewPattern" patternUnits="userSpaceOnUse" y="0" x="0" width="300" height="300">
                    <g id="previewTransformGroup" transform="scale(1.1538461538461537)"><svg width="260" height="260" viewBox="0 0 260 260" version="1.1" shape-rendering="geometricPrecision" image-rendering="optimizeQuality" fill-rule="evenodd" clip-rule="evenodd"><g><g id="preview_T0_0"><rect onclick="top.selectObj('0')" id="preview_F0_0" width="260" height="260" fill="#74FFF2"></rect></g><g transform="scale(0.001)"><g id="preview_T1_0"><path onclick="top.selectObj('1')" id="preview_L1_0" fill="none" stroke-width="3000" d="M221550 58548c6972,7009 -881,11339 1716,15439 3819,6028 11500,4376 9742,16803m-177579 59812c-2156,9207 9169,8926 11114,13346 2166,4923 -1110,13337 5451,18220 15200,11310 -2460,13323 13679,24138m184327 -26790c-25549,-9061 -16371,11301 -31733,3218m-185371 -6075c-9022,1006 -11369,-6613 -20243,-5059 -10205,1786 -12146,11681 -22436,7993 -13432,-4815 -17366,-1578 -20217,1497m54522 39907c-4965,4199 -159,11065 -2669,15520 -3067,5446 -8936,-2007 -13181,5008 -5889,9730 -8777,3399 -13645,12166m228422 -47743c50,7470 9382,5912 11410,10897 2479,6094 -4777,5218 -1795,13382 4136,11324 -15081,5799 -2666,24112m-214697 -72728c-1838,9809 180,18521 8354,20622 12559,3229 11917,9016 11193,10848m135503 -17879c20711,18947 21470,-27040 43079,4590m-3553 17436c-26690,4245 -3826,34807 -25100,34729m-98530 334c6779,-7716 18692,-12321 25530,-2481 11725,16872 17961,-7569 29619,-9168m-34544 24425c-11265,-7979 -14468,1177 -19619,4936m-8625 0c-1277,-757 -2688,-1836 -4265,-3314 -7030,-6583 -11823,-4262 -18370,-1014 -15284,7582 -4391,-17221 -41730,-5597m102767 -37501c5981,-9369 10758,-7117 20656,-9916 6541,-1850 2651,-15729 15112,-18251m-105017 44678c1667,-3288 11492,-12370 18410,-7853 10211,6667 18365,7912 23087,-7573m64063 46341c3785,-6035 10890,-9883 6158,-14419 -8360,-8015 -953,-12655 1795,-15806 5178,-5940 -8084,-12493 797,-21621m-97214 -60711c7591,-13 11563,5735 13731,12585 3567,11266 11102,13552 15407,13214 20004,-1573 10090,20001 30438,11788m-116275 27240c-13634,-1234 -5496,-18982 -20756,-17394m203222 2489c-6936,10110 -17489,1867 -16526,17179m-69573 -8176c-6805,-1500 -5366,-14824 -22212,-8653m146744 -89923c-10688,-1218 -10077,12209 -16921,8050 -9181,-5579 -7648,7463 -20682,4160m-67141 -82882c-3965,-4547 -9406,886 -13391,-1192 -4871,-2540 1889,-10808 -5312,-12650 -10552,-2699 -2191,-9073 -11426,-12435m5174 96566c16659,-20851 16864,14939 33357,-2404m-125601 45609c-2493,-29115 24832,-6000 24869,-32676m64023 31069c30274,4353 6629,-26857 36464,-23393m75221 -125307c7936,-113 8450,8702 11203,10530 4048,2688 7130,-116 10851,7708m-108489 146762c11778,-9248 22633,3391 28855,2985 9150,-596 10568,-8330 25100,-847m41337 -29277c-8114,2118 -14658,-4265 -22974,2932 -4715,4079 -8091,1922 -12170,910 -19760,-4905 -11777,13666 -27581,5597m-46972 -152546c-17802,-12608 -15468,17579 -32509,1622 -7030,-6583 -11823,-4262 -18370,-1014 -15284,7582 -4391,-17221 -41730,-5597m125231 46756c-843,27078 -25468,2575 -21275,39836m22061 63509c2239,-7217 4681,-10543 16185,-10628 7236,-54 9633,-8146 12567,-13048 2532,-4230 11992,26 11289,-11907m29231 -72909c-251,-13558 -10961,-1003 -11856,-13006 -929,-12462 -1299,-13861 -14294,-17351 -6471,-1737 1063,-12390 -14134,-14121m15741 68719c-1906,39 -5811,2441 -6627,5683 -1192,4737 -4861,6216 -9472,5186m-19578 26408c-1231,2799 -6962,6887 -2767,11797 2786,3261 869,9345 -132,12413m-94106 23768c14361,-25683 19804,-5158 31579,-18664 8209,-9416 11255,7838 18856,-1006m-53525 -52920c-25778,-4369 -20522,-20990 -17632,-28964 6676,-18419 -4085,-26393 -20358,-28244m-25421 124413c-5782,-25187 19819,-22639 11956,-32029 -9679,-11557 4827,-16884 8829,-20571 7544,-6951 -12950,-16940 -162,-27490m145091 -46334c-2850,-12184 14756,-17278 7963,-23790 -2166,-2076 -3271,-3926 -3676,-5582m-17092 81844c5842,-11066 22472,-3360 21617,-12731 -1051,-11534 7583,-10176 11724,-10752 7805,-1086 2095,-14733 14786,-15795m-109063 48260c-5360,11625 -13715,1377 -17585,12612 -3444,9998 -10941,3010 -18579,2793 -16467,-469 -5500,11554 -21718,8518m198241 -37745c4967,-7859 10528,-10818 16619,-10448 9510,576 12780,-1692 14844,-4295m-280001 4850c1673,-489 3393,-662 5156,-555 18934,1147 13135,-8979 22321,-10578 2045,-355 13205,1447 14435,-5793m121306 44341c9012,-2286 15084,1079 19250,5537 12951,13858 14024,835 21790,5995 1729,1149 8589,10135 14462,5727m-84187 -20189c-8736,813 -17125,-4619 -19185,-13444 -1813,-7764 -9134,-15159 -21901,-10338m57255 -46445c16657,-140 8181,17543 21308,18279m-109121 -15843c16655,2037 8315,18314 21213,16434m-55741 -21551c2574,11987 -10666,13985 1116,23812m229051 128583c-9021,12490 -18251,-668 -24231,12681m-234297 -79922c2028,-4404 4569,-7806 16619,-8569m222441 26025c30696,-9798 10961,-24341 37559,-26025m-198788 43811c6419,-1832 8869,-11649 14306,-16563 6842,-6184 11546,-1013 15526,-4702 3809,-3530 7035,-11377 15569,-8951m-39602 -50340c4844,-17253 18179,828 32568,-18240" stroke="#000000"></path></g></g></g></svg></g>
                  </pattern>
                </defs>
                <rect id="previewSVGrect" fill="url(#previewPattern)" x="0" y="0" width="4000" height="2000" fill-opacity="1"></rect>
              </svg>
